<mxfile host="Electron" agent="Mozilla/5.0 (Windows NT 10.0; Win64; x64) AppleWebKit/537.36 (KHTML, like Gecko) draw.io/26.2.2 Chrome/134.0.6998.178 Electron/35.1.2 Safari/537.36" version="26.2.2">
  <diagram id="C5RBs43oDa-KdzZeNtuy" name="Page-1">
    <mxGraphModel dx="1106" dy="899" grid="1" gridSize="10" guides="1" tooltips="1" connect="1" arrows="1" fold="1" page="1" pageScale="1" pageWidth="827" pageHeight="1169" math="0" shadow="0">
      <root>
        <mxCell id="WIyWlLk6GJQsqaUBKTNV-0" />
        <mxCell id="WIyWlLk6GJQsqaUBKTNV-1" parent="WIyWlLk6GJQsqaUBKTNV-0" />
        <mxCell id="ZWC-lObaD7gUzK3qTIQF-6" style="edgeStyle=orthogonalEdgeStyle;rounded=0;orthogonalLoop=1;jettySize=auto;html=1;exitX=0.5;exitY=1;exitDx=0;exitDy=0;entryX=0.5;entryY=0;entryDx=0;entryDy=0;" parent="WIyWlLk6GJQsqaUBKTNV-1" source="WIyWlLk6GJQsqaUBKTNV-3" target="ZWC-lObaD7gUzK3qTIQF-4" edge="1">
          <mxGeometry relative="1" as="geometry" />
        </mxCell>
        <mxCell id="ZWC-lObaD7gUzK3qTIQF-44" style="edgeStyle=orthogonalEdgeStyle;rounded=0;orthogonalLoop=1;jettySize=auto;html=1;exitX=0.5;exitY=1;exitDx=0;exitDy=0;entryX=0.5;entryY=0;entryDx=0;entryDy=0;" parent="WIyWlLk6GJQsqaUBKTNV-1" source="WIyWlLk6GJQsqaUBKTNV-3" target="ZWC-lObaD7gUzK3qTIQF-37" edge="1">
          <mxGeometry relative="1" as="geometry" />
        </mxCell>
        <mxCell id="WIyWlLk6GJQsqaUBKTNV-3" value="python程序启动&lt;div&gt;并注册&lt;span style=&quot;background-color: transparent; color: light-dark(rgb(0, 0, 0), rgb(255, 255, 255));&quot;&gt;ultravnc&lt;/span&gt;&lt;/div&gt;" style="rounded=1;whiteSpace=wrap;html=1;fontSize=12;glass=0;strokeWidth=1;shadow=0;" parent="WIyWlLk6GJQsqaUBKTNV-1" vertex="1">
          <mxGeometry x="100" y="195" width="120" height="40" as="geometry" />
        </mxCell>
        <mxCell id="ZWC-lObaD7gUzK3qTIQF-60" style="edgeStyle=orthogonalEdgeStyle;rounded=0;orthogonalLoop=1;jettySize=auto;html=1;exitX=0.5;exitY=1;exitDx=0;exitDy=0;entryX=0.5;entryY=0;entryDx=0;entryDy=0;" parent="WIyWlLk6GJQsqaUBKTNV-1" source="ZWC-lObaD7gUzK3qTIQF-0" target="ZWC-lObaD7gUzK3qTIQF-59" edge="1">
          <mxGeometry relative="1" as="geometry" />
        </mxCell>
        <mxCell id="ZWC-lObaD7gUzK3qTIQF-0" value="客户端" style="rounded=1;whiteSpace=wrap;html=1;" parent="WIyWlLk6GJQsqaUBKTNV-1" vertex="1">
          <mxGeometry x="100" y="10" width="120" height="40" as="geometry" />
        </mxCell>
        <mxCell id="ZWC-lObaD7gUzK3qTIQF-61" value="" style="edgeStyle=orthogonalEdgeStyle;rounded=0;orthogonalLoop=1;jettySize=auto;html=1;" parent="WIyWlLk6GJQsqaUBKTNV-1" source="ZWC-lObaD7gUzK3qTIQF-2" target="ZWC-lObaD7gUzK3qTIQF-0" edge="1">
          <mxGeometry relative="1" as="geometry" />
        </mxCell>
        <mxCell id="ZWC-lObaD7gUzK3qTIQF-67" value="连接" style="edgeLabel;html=1;align=center;verticalAlign=middle;resizable=0;points=[];" parent="ZWC-lObaD7gUzK3qTIQF-61" vertex="1" connectable="0">
          <mxGeometry x="-0.08" y="2" relative="1" as="geometry">
            <mxPoint as="offset" />
          </mxGeometry>
        </mxCell>
        <mxCell id="ZWC-lObaD7gUzK3qTIQF-72" style="edgeStyle=orthogonalEdgeStyle;rounded=0;orthogonalLoop=1;jettySize=auto;html=1;exitX=0.5;exitY=1;exitDx=0;exitDy=0;entryX=0.5;entryY=0;entryDx=0;entryDy=0;" parent="WIyWlLk6GJQsqaUBKTNV-1" source="ZWC-lObaD7gUzK3qTIQF-2" target="ZWC-lObaD7gUzK3qTIQF-3" edge="1">
          <mxGeometry relative="1" as="geometry">
            <Array as="points">
              <mxPoint x="380" y="100" />
              <mxPoint x="600" y="100" />
            </Array>
          </mxGeometry>
        </mxCell>
        <mxCell id="ZWC-lObaD7gUzK3qTIQF-74" value="读取或修改记录" style="edgeLabel;html=1;align=center;verticalAlign=middle;resizable=0;points=[];" parent="ZWC-lObaD7gUzK3qTIQF-72" vertex="1" connectable="0">
          <mxGeometry x="-0.5451" relative="1" as="geometry">
            <mxPoint as="offset" />
          </mxGeometry>
        </mxCell>
        <mxCell id="ZWC-lObaD7gUzK3qTIQF-2" value="管理端" style="rounded=1;whiteSpace=wrap;html=1;" parent="WIyWlLk6GJQsqaUBKTNV-1" vertex="1">
          <mxGeometry x="320" y="10" width="120" height="40" as="geometry" />
        </mxCell>
        <mxCell id="ZWC-lObaD7gUzK3qTIQF-48" style="edgeStyle=orthogonalEdgeStyle;rounded=0;orthogonalLoop=1;jettySize=auto;html=1;exitX=1;exitY=0.5;exitDx=0;exitDy=0;entryX=0;entryY=0.5;entryDx=0;entryDy=0;" parent="WIyWlLk6GJQsqaUBKTNV-1" source="ZWC-lObaD7gUzK3qTIQF-4" target="ZWC-lObaD7gUzK3qTIQF-3" edge="1">
          <mxGeometry relative="1" as="geometry">
            <mxPoint x="290" y="300" as="sourcePoint" />
            <Array as="points">
              <mxPoint x="290" y="300" />
              <mxPoint x="290" y="230" />
              <mxPoint x="470" y="230" />
              <mxPoint x="470" y="300" />
            </Array>
          </mxGeometry>
        </mxCell>
        <mxCell id="ZWC-lObaD7gUzK3qTIQF-56" value="插入或修改记录" style="edgeLabel;html=1;align=center;verticalAlign=middle;resizable=0;points=[];" parent="ZWC-lObaD7gUzK3qTIQF-48" vertex="1" connectable="0">
          <mxGeometry x="-0.0718" y="3" relative="1" as="geometry">
            <mxPoint x="26" y="3" as="offset" />
          </mxGeometry>
        </mxCell>
        <mxCell id="ZWC-lObaD7gUzK3qTIQF-3" value="数据库" style="rounded=1;whiteSpace=wrap;html=1;" parent="WIyWlLk6GJQsqaUBKTNV-1" vertex="1">
          <mxGeometry x="540" y="280" width="120" height="40" as="geometry" />
        </mxCell>
        <mxCell id="ZWC-lObaD7gUzK3qTIQF-21" style="edgeStyle=orthogonalEdgeStyle;rounded=0;orthogonalLoop=1;jettySize=auto;html=1;exitX=0.5;exitY=1;exitDx=0;exitDy=0;entryX=0.5;entryY=0;entryDx=0;entryDy=0;" parent="WIyWlLk6GJQsqaUBKTNV-1" source="ZWC-lObaD7gUzK3qTIQF-4" target="ZWC-lObaD7gUzK3qTIQF-20" edge="1">
          <mxGeometry relative="1" as="geometry" />
        </mxCell>
        <mxCell id="ZWC-lObaD7gUzK3qTIQF-4" value="读取计算机信息" style="rounded=1;whiteSpace=wrap;html=1;" parent="WIyWlLk6GJQsqaUBKTNV-1" vertex="1">
          <mxGeometry x="100" y="280" width="120" height="40" as="geometry" />
        </mxCell>
        <mxCell id="ZWC-lObaD7gUzK3qTIQF-23" style="edgeStyle=orthogonalEdgeStyle;rounded=0;orthogonalLoop=1;jettySize=auto;html=1;exitX=0;exitY=0.5;exitDx=0;exitDy=0;entryX=0;entryY=0.5;entryDx=0;entryDy=0;" parent="WIyWlLk6GJQsqaUBKTNV-1" source="ZWC-lObaD7gUzK3qTIQF-20" target="ZWC-lObaD7gUzK3qTIQF-4" edge="1">
          <mxGeometry relative="1" as="geometry" />
        </mxCell>
        <mxCell id="ZWC-lObaD7gUzK3qTIQF-24" value="发生变更" style="edgeLabel;html=1;align=center;verticalAlign=middle;resizable=0;points=[];" parent="ZWC-lObaD7gUzK3qTIQF-23" vertex="1" connectable="0">
          <mxGeometry x="0.0347" y="-2" relative="1" as="geometry">
            <mxPoint as="offset" />
          </mxGeometry>
        </mxCell>
        <mxCell id="ZWC-lObaD7gUzK3qTIQF-20" value="开机、IP&lt;div&gt;用户变更&lt;/div&gt;" style="rhombus;whiteSpace=wrap;html=1;" parent="WIyWlLk6GJQsqaUBKTNV-1" vertex="1">
          <mxGeometry x="120" y="350" width="80" height="80" as="geometry" />
        </mxCell>
        <mxCell id="ZWC-lObaD7gUzK3qTIQF-36" style="edgeStyle=orthogonalEdgeStyle;rounded=0;orthogonalLoop=1;jettySize=auto;html=1;exitX=0.5;exitY=1;exitDx=0;exitDy=0;entryX=0.5;entryY=0;entryDx=0;entryDy=0;" parent="WIyWlLk6GJQsqaUBKTNV-1" source="ZWC-lObaD7gUzK3qTIQF-37" target="ZWC-lObaD7gUzK3qTIQF-42" edge="1">
          <mxGeometry relative="1" as="geometry" />
        </mxCell>
        <mxCell id="ZWC-lObaD7gUzK3qTIQF-37" value="python监听&lt;div&gt;vnc端口&lt;/div&gt;" style="rounded=1;whiteSpace=wrap;html=1;" parent="WIyWlLk6GJQsqaUBKTNV-1" vertex="1">
          <mxGeometry x="320" y="280" width="120" height="40" as="geometry" />
        </mxCell>
        <mxCell id="ZWC-lObaD7gUzK3qTIQF-38" style="edgeStyle=orthogonalEdgeStyle;rounded=0;orthogonalLoop=1;jettySize=auto;html=1;exitX=0;exitY=0.5;exitDx=0;exitDy=0;entryX=0;entryY=0.5;entryDx=0;entryDy=0;" parent="WIyWlLk6GJQsqaUBKTNV-1" source="ZWC-lObaD7gUzK3qTIQF-42" target="ZWC-lObaD7gUzK3qTIQF-37" edge="1">
          <mxGeometry relative="1" as="geometry" />
        </mxCell>
        <mxCell id="ZWC-lObaD7gUzK3qTIQF-39" value="否" style="edgeLabel;html=1;align=center;verticalAlign=middle;resizable=0;points=[];" parent="ZWC-lObaD7gUzK3qTIQF-38" vertex="1" connectable="0">
          <mxGeometry x="0.1075" relative="1" as="geometry">
            <mxPoint as="offset" />
          </mxGeometry>
        </mxCell>
        <mxCell id="ZWC-lObaD7gUzK3qTIQF-40" style="edgeStyle=orthogonalEdgeStyle;rounded=0;orthogonalLoop=1;jettySize=auto;html=1;exitX=0.5;exitY=1;exitDx=0;exitDy=0;entryX=0.5;entryY=0;entryDx=0;entryDy=0;" parent="WIyWlLk6GJQsqaUBKTNV-1" source="ZWC-lObaD7gUzK3qTIQF-42" target="ZWC-lObaD7gUzK3qTIQF-43" edge="1">
          <mxGeometry relative="1" as="geometry" />
        </mxCell>
        <mxCell id="ZWC-lObaD7gUzK3qTIQF-41" value="是" style="edgeLabel;html=1;align=center;verticalAlign=middle;resizable=0;points=[];" parent="ZWC-lObaD7gUzK3qTIQF-40" vertex="1" connectable="0">
          <mxGeometry x="-0.1833" y="3" relative="1" as="geometry">
            <mxPoint x="-3" as="offset" />
          </mxGeometry>
        </mxCell>
        <mxCell id="ZWC-lObaD7gUzK3qTIQF-42" value="是否有&lt;div&gt;传入远程&lt;/div&gt;" style="rhombus;whiteSpace=wrap;html=1;" parent="WIyWlLk6GJQsqaUBKTNV-1" vertex="1">
          <mxGeometry x="340" y="360" width="80" height="80" as="geometry" />
        </mxCell>
        <mxCell id="ZWC-lObaD7gUzK3qTIQF-51" style="edgeStyle=orthogonalEdgeStyle;rounded=0;orthogonalLoop=1;jettySize=auto;html=1;exitX=0.5;exitY=1;exitDx=0;exitDy=0;entryX=0.5;entryY=0;entryDx=0;entryDy=0;" parent="WIyWlLk6GJQsqaUBKTNV-1" source="ZWC-lObaD7gUzK3qTIQF-43" target="ZWC-lObaD7gUzK3qTIQF-50" edge="1">
          <mxGeometry relative="1" as="geometry" />
        </mxCell>
        <mxCell id="ZWC-lObaD7gUzK3qTIQF-52" value="是" style="edgeLabel;html=1;align=center;verticalAlign=middle;resizable=0;points=[];" parent="ZWC-lObaD7gUzK3qTIQF-51" vertex="1" connectable="0">
          <mxGeometry x="-0.2857" y="-1" relative="1" as="geometry">
            <mxPoint x="1" as="offset" />
          </mxGeometry>
        </mxCell>
        <mxCell id="ZWC-lObaD7gUzK3qTIQF-68" style="edgeStyle=orthogonalEdgeStyle;rounded=0;orthogonalLoop=1;jettySize=auto;html=1;exitX=1;exitY=0.5;exitDx=0;exitDy=0;entryX=1;entryY=0.5;entryDx=0;entryDy=0;" parent="WIyWlLk6GJQsqaUBKTNV-1" source="ZWC-lObaD7gUzK3qTIQF-43" target="ZWC-lObaD7gUzK3qTIQF-2" edge="1">
          <mxGeometry relative="1" as="geometry">
            <Array as="points">
              <mxPoint x="490" y="520" />
              <mxPoint x="490" y="30" />
            </Array>
          </mxGeometry>
        </mxCell>
        <mxCell id="ZWC-lObaD7gUzK3qTIQF-70" value="建立连接" style="edgeLabel;html=1;align=center;verticalAlign=middle;resizable=0;points=[];" parent="ZWC-lObaD7gUzK3qTIQF-68" vertex="1" connectable="0">
          <mxGeometry x="-0.4356" y="-1" relative="1" as="geometry">
            <mxPoint as="offset" />
          </mxGeometry>
        </mxCell>
        <mxCell id="ZWC-lObaD7gUzK3qTIQF-71" value="否" style="edgeLabel;html=1;align=center;verticalAlign=middle;resizable=0;points=[];" parent="ZWC-lObaD7gUzK3qTIQF-68" vertex="1" connectable="0">
          <mxGeometry x="-0.9112" y="-1" relative="1" as="geometry">
            <mxPoint as="offset" />
          </mxGeometry>
        </mxCell>
        <mxCell id="ZWC-lObaD7gUzK3qTIQF-43" value="是否多&lt;div&gt;显示器&lt;/div&gt;" style="rhombus;whiteSpace=wrap;html=1;" parent="WIyWlLk6GJQsqaUBKTNV-1" vertex="1">
          <mxGeometry x="340" y="480" width="80" height="80" as="geometry" />
        </mxCell>
        <mxCell id="ZWC-lObaD7gUzK3qTIQF-69" style="edgeStyle=orthogonalEdgeStyle;rounded=0;orthogonalLoop=1;jettySize=auto;html=1;exitX=1;exitY=0.5;exitDx=0;exitDy=0;endArrow=none;startFill=0;" parent="WIyWlLk6GJQsqaUBKTNV-1" source="ZWC-lObaD7gUzK3qTIQF-50" edge="1">
          <mxGeometry relative="1" as="geometry">
            <mxPoint x="490" y="520" as="targetPoint" />
          </mxGeometry>
        </mxCell>
        <mxCell id="ZWC-lObaD7gUzK3qTIQF-50" value="关闭主显示器外&lt;div&gt;的所有显示器&lt;/div&gt;" style="rounded=1;whiteSpace=wrap;html=1;" parent="WIyWlLk6GJQsqaUBKTNV-1" vertex="1">
          <mxGeometry x="320" y="600" width="120" height="40" as="geometry" />
        </mxCell>
        <mxCell id="ZWC-lObaD7gUzK3qTIQF-63" style="edgeStyle=orthogonalEdgeStyle;rounded=0;orthogonalLoop=1;jettySize=auto;html=1;exitX=0.5;exitY=1;exitDx=0;exitDy=0;entryX=0.5;entryY=0;entryDx=0;entryDy=0;" parent="WIyWlLk6GJQsqaUBKTNV-1" source="ZWC-lObaD7gUzK3qTIQF-59" target="WIyWlLk6GJQsqaUBKTNV-3" edge="1">
          <mxGeometry relative="1" as="geometry" />
        </mxCell>
        <mxCell id="ZWC-lObaD7gUzK3qTIQF-65" value="是" style="edgeLabel;html=1;align=center;verticalAlign=middle;resizable=0;points=[];" parent="ZWC-lObaD7gUzK3qTIQF-63" vertex="1" connectable="0">
          <mxGeometry x="-0.5543" relative="1" as="geometry">
            <mxPoint y="2" as="offset" />
          </mxGeometry>
        </mxCell>
        <mxCell id="ZWC-lObaD7gUzK3qTIQF-64" style="edgeStyle=orthogonalEdgeStyle;rounded=0;orthogonalLoop=1;jettySize=auto;html=1;exitX=1;exitY=0.5;exitDx=0;exitDy=0;entryX=1;entryY=0.5;entryDx=0;entryDy=0;" parent="WIyWlLk6GJQsqaUBKTNV-1" source="ZWC-lObaD7gUzK3qTIQF-59" target="ZWC-lObaD7gUzK3qTIQF-42" edge="1">
          <mxGeometry relative="1" as="geometry">
            <mxPoint x="380" y="250" as="targetPoint" />
            <Array as="points">
              <mxPoint x="450" y="120" />
              <mxPoint x="450" y="400" />
            </Array>
          </mxGeometry>
        </mxCell>
        <mxCell id="ZWC-lObaD7gUzK3qTIQF-66" value="否" style="edgeLabel;html=1;align=center;verticalAlign=middle;resizable=0;points=[];" parent="ZWC-lObaD7gUzK3qTIQF-64" vertex="1" connectable="0">
          <mxGeometry x="-0.6616" y="-1" relative="1" as="geometry">
            <mxPoint x="-17" y="-1" as="offset" />
          </mxGeometry>
        </mxCell>
        <mxCell id="OJwPHnIUEMwVxPTjnj-7-0" style="edgeStyle=orthogonalEdgeStyle;rounded=0;orthogonalLoop=1;jettySize=auto;html=1;exitX=0;exitY=0.5;exitDx=0;exitDy=0;entryX=0;entryY=0.5;entryDx=0;entryDy=0;" edge="1" parent="WIyWlLk6GJQsqaUBKTNV-1" source="ZWC-lObaD7gUzK3qTIQF-59" target="ZWC-lObaD7gUzK3qTIQF-4">
          <mxGeometry relative="1" as="geometry">
            <mxPoint x="40" y="480" as="targetPoint" />
            <Array as="points">
              <mxPoint x="30" y="120" />
              <mxPoint x="30" y="300" />
            </Array>
          </mxGeometry>
        </mxCell>
        <mxCell id="OJwPHnIUEMwVxPTjnj-7-3" value="否" style="edgeLabel;html=1;align=center;verticalAlign=middle;resizable=0;points=[];" vertex="1" connectable="0" parent="OJwPHnIUEMwVxPTjnj-7-0">
          <mxGeometry x="-0.8653" y="2" relative="1" as="geometry">
            <mxPoint as="offset" />
          </mxGeometry>
        </mxCell>
        <mxCell id="ZWC-lObaD7gUzK3qTIQF-59" value="是否首次&lt;div&gt;启动&lt;/div&gt;" style="rhombus;whiteSpace=wrap;html=1;" parent="WIyWlLk6GJQsqaUBKTNV-1" vertex="1">
          <mxGeometry x="120" y="80" width="80" height="80" as="geometry" />
        </mxCell>
      </root>
    </mxGraphModel>
  </diagram>
</mxfile>
